<svg width="1170" height="436" viewBox="0 0 1170 436" fill="none" xmlns="http://www.w3.org/2000/svg">
<rect x="0.5" y="0.5" width="1169" height="435" rx="19.5" fill="#142059" stroke="url(#paint0_linear_112_2)"/>
<mask id="mask0_112_2" style="mask-type:alpha" maskUnits="userSpaceOnUse" x="0" y="0" width="1170" height="436">
<rect width="1170" height="436" rx="20" fill="#142059"/>
</mask>
<g mask="url(#mask0_112_2)">
<g filter="url(#filter0_f_112_2)">
<path d="M826.442 -165.596C829.064 -230.187 791.086 -318.136 615.138 -231.249C380.631 -115.444 365.835 -86.1679 500.722 -40.5421C635.608 5.08368 884.302 -239.635 787.923 -7.56769C691.544 224.499 358.737 283.656 617.351 230.452C875.965 177.247 1057.85 148.799 1061.55 50.3797C1065.24 -48.0395 948.885 -103.293 904.833 -131.568C860.782 -159.842 882.277 -110.996 837.204 -155.363C832.964 -159.537 829.404 -162.913 826.442 -165.596Z" fill="#199384"/>
</g>
</g>
<defs>
<filter id="filter0_f_112_2" x="175.122" y="-507.593" width="1126.51" height="996.204" filterUnits="userSpaceOnUse" color-interpolation-filters="sRGB">
<feFlood flood-opacity="0" result="BackgroundImageFix"/>
<feBlend mode="normal" in="SourceGraphic" in2="BackgroundImageFix" result="shape"/>
<feGaussianBlur stdDeviation="120" result="effect1_foregroundBlur_112_2"/>
</filter>
<linearGradient id="paint0_linear_112_2" x1="237" y1="-8.89794" x2="777.546" y2="549.665" gradientUnits="userSpaceOnUse">
<stop stop-color="#354BAF"/>
<stop offset="1" stop-color="#1F2F7E"/>
</linearGradient>
</defs>
</svg>
