<svg width="669" height="622" viewBox="0 0 669 622" fill="none" xmlns="http://www.w3.org/2000/svg">
<path d="M0 0H669V622H0V0Z" fill="#142059"/>
<mask id="mask0_187_4364" style="mask-type:alpha" maskUnits="userSpaceOnUse" x="0" y="0" width="669" height="622">
<path d="M0 0H669V622H0V0Z" fill="#142059"/>
</mask>
<g mask="url(#mask0_187_4364)">
<g opacity="0.3" filter="url(#filter0_f_187_4364)">
<path d="M793.813 366.493C793.813 220.145 414.052 268.674 224.172 311.231C113.673 332.466 161.301 366.493 224.172 379.832C287.042 393.17 248.939 379.832 515.661 461.771C782.382 543.71 344.196 452.243 52.7075 568.482C-238.781 684.721 250.844 707.588 424.213 698.06C597.582 688.533 793.813 549.427 793.813 366.493Z" fill="#199384"/>
</g>
</g>
<defs>
<filter id="filter0_f_187_4364" x="-277.943" y="28" width="1311.76" height="912" filterUnits="userSpaceOnUse" color-interpolation-filters="sRGB">
<feFlood flood-opacity="0" result="BackgroundImageFix"/>
<feBlend mode="normal" in="SourceGraphic" in2="BackgroundImageFix" result="shape"/>
<feGaussianBlur stdDeviation="120" result="effect1_foregroundBlur_187_4364"/>
</filter>
</defs>
</svg>
