<svg width="27" height="28" viewBox="0 0 27 28" fill="none" xmlns="http://www.w3.org/2000/svg">
<path fill-rule="evenodd" clip-rule="evenodd" d="M13.5 1.27215C6.68813 1.27215 1.17338 7.20927 1.17338 14.5208C1.17338 19.8894 4.14675 24.5093 8.42625 26.5874C8.874 26.8053 9.31163 26.7189 9.65363 26.4413C9.84276 26.2819 9.99522 26.0773 10.0991 25.8435C10.2029 25.6097 10.2553 25.3531 10.2521 25.0937V24.3998L8.7255 24.1758C8.71419 24.1741 8.70294 24.1721 8.69175 24.1697C7.85025 23.9919 7.28212 23.6718 6.86588 23.2104C6.516 22.8221 6.30225 22.357 6.12113 21.9626L6.05813 21.825C5.89072 21.4472 5.70792 21.0775 5.51025 20.7172C5.35837 20.4567 5.24025 20.3228 5.12325 20.2388C4.82625 20.0258 4.5405 19.6642 4.5405 19.2126C4.53948 19.0826 4.5652 18.9539 4.61579 18.836C4.66638 18.7181 4.74058 18.6139 4.833 18.5308C5.00744 18.3814 5.22483 18.303 5.44725 18.3093C5.697 18.3093 5.93213 18.392 6.12787 18.487C6.32812 18.5844 6.52725 18.7134 6.71287 18.8473C7.16512 19.1736 7.61062 19.5595 7.9875 20.0355C8.38013 20.5297 8.658 20.8438 9.0765 20.9083C9.42075 20.9619 9.77175 20.9631 10.0451 20.9497C10.0831 20.7155 10.1458 20.4868 10.2319 20.268C9.89799 20.1837 9.56862 20.0797 9.24525 19.9564C8.5095 19.6739 7.68937 19.2345 7.13812 18.5686C6.53287 17.8357 6.15825 17.182 5.949 16.4175C5.74538 15.6724 5.71163 14.8653 5.71163 13.8719C5.71163 12.3502 6.32025 11.0683 6.777 10.3878C6.60152 9.79204 6.47539 9.18054 6.40013 8.56055C6.35028 8.16957 6.35065 7.77301 6.40125 7.38214C6.4575 7.02545 6.59812 6.58719 6.96825 6.32303C7.32487 6.06616 7.74337 6.07712 8.06962 6.14285C8.40825 6.21224 8.76038 6.36442 9.08437 6.5385C9.612 6.82093 10.1363 7.19832 10.5289 7.51848C11.2061 7.30301 12.4043 7.02545 13.4876 6.99988H13.5124C14.5969 7.02545 15.741 7.30301 16.4014 7.51727C16.7951 7.19832 17.3183 6.81971 17.8448 6.5385C18.1688 6.36442 18.5198 6.21224 18.8595 6.14285C19.1857 6.07712 19.6042 6.06616 19.962 6.32181C20.331 6.58719 20.4727 7.02545 20.5279 7.38214C20.5852 7.75344 20.5718 8.16856 20.5279 8.56055C20.4529 9.1805 20.3272 9.792 20.1521 10.3878C20.6089 11.0696 21.2175 12.3514 21.2175 13.8719C21.2175 14.8653 21.1838 15.6724 20.9812 16.4162C20.7709 17.1832 20.3962 17.8357 19.791 18.5686C19.2397 19.2345 18.4196 19.6739 17.6839 19.9564C17.2933 20.1049 16.8942 20.2257 16.4891 20.3179C16.6275 20.7708 16.677 21.1372 16.677 21.3478V25.1095C16.677 25.6817 16.9234 26.1698 17.2733 26.4547C17.613 26.7335 18.0495 26.8199 18.4972 26.6081C22.8172 24.5483 25.8255 19.9162 25.8255 14.5196C25.8255 7.20927 20.313 1.27215 13.5 1.27215ZM10.6605 22.1683C10.368 22.2134 10.6594 22.1683 10.6594 22.1683H10.656L10.647 22.1708L10.6144 22.1756C10.4473 22.1969 10.2796 22.2119 10.1115 22.2207C9.71111 22.2433 9.30966 22.2257 8.91225 22.1683C8.02238 22.032 7.48125 21.3503 7.13138 20.9071L7.09762 20.8657C6.98323 20.7221 6.86035 20.5867 6.72975 20.4604C6.84562 20.6917 6.966 20.9497 7.09538 21.2273L7.10663 21.2516L7.164 21.3783C7.36088 21.8019 7.49025 22.0843 7.70512 22.3205C7.91437 22.5518 8.24062 22.7758 8.89987 22.917L10.9181 23.2128C11.0591 23.2335 11.1883 23.3088 11.2819 23.4248C11.3754 23.5407 11.4268 23.6895 11.4266 23.8434V25.0937C11.4266 26.0676 11.0047 26.9356 10.3579 27.4615C10.0183 27.7423 9.61423 27.9174 9.18938 27.9681C8.76452 28.0187 8.33496 27.9429 7.947 27.7488C3.26475 25.4759 0 20.4153 0 14.5208C0 6.49589 6.04912 0 13.5 0C20.9509 0 27 6.49589 27 14.5208C27 20.4457 23.6936 25.5197 18.9709 27.7731C18.5826 27.9635 18.1538 28.0361 17.7303 27.9832C17.3068 27.9302 16.9046 27.7537 16.5667 27.4724C16.2327 27.1941 15.9627 26.8358 15.778 26.4256C15.5934 26.0154 15.4991 25.5645 15.5025 25.1083V21.3466C15.5025 21.2614 15.4474 20.7696 15.1403 20.1085C15.0979 20.0169 15.0765 19.9155 15.078 19.813C15.0795 19.7105 15.1038 19.6099 15.1488 19.5198C15.1938 19.4296 15.2583 19.3525 15.3367 19.295C15.4151 19.2375 15.5052 19.2013 15.5992 19.1894C16.176 19.1112 16.7433 18.9659 17.2913 18.756C17.9595 18.5004 18.5591 18.1498 18.9157 17.7188C19.4456 17.0785 19.71 16.5867 19.8551 16.0547C20.0059 15.5032 20.0441 14.8617 20.0441 13.8719C20.0441 12.4829 19.3691 11.3155 19.0586 10.9393C18.9881 10.8543 18.9401 10.7503 18.9195 10.6383C18.8989 10.5263 18.9066 10.4103 18.9416 10.3026C19.1416 9.68926 19.283 9.05535 19.3635 8.41082C19.3995 8.07604 19.4018 7.79604 19.3703 7.59396C19.3632 7.52007 19.3425 7.44847 19.3095 7.38336C19.232 7.36885 19.1526 7.37259 19.0766 7.39431C18.8854 7.43327 18.6412 7.53066 18.3645 7.67918C17.8132 7.97378 17.2395 8.4096 16.884 8.72125C16.8056 8.79007 16.7121 8.83578 16.6125 8.85391C16.513 8.87204 16.4108 8.86199 16.3159 8.82472C15.405 8.5023 14.4575 8.31674 13.5 8.27325C12.3671 8.30247 11.0599 8.65064 10.6132 8.82472C10.5184 8.86199 10.4162 8.87204 10.3166 8.85391C10.217 8.83578 10.1235 8.79007 10.0451 8.72125C9.58538 8.32073 9.08935 7.97159 8.56462 7.67918C8.3393 7.55114 8.09954 7.45538 7.85138 7.39431C7.77574 7.37276 7.69671 7.36903 7.61962 7.38336C7.58656 7.44845 7.5659 7.52007 7.55888 7.59396C7.52737 7.79604 7.52962 8.07604 7.56562 8.41082C7.6467 9.05524 7.78805 9.6891 7.9875 10.3026C8.05838 10.5217 8.0145 10.7652 7.8705 10.9393C7.56 11.3155 6.885 12.4829 6.885 13.8719C6.885 14.8604 6.92325 15.5032 7.074 16.0547C7.22025 16.5867 7.4835 17.0773 8.01225 17.7188C8.37 18.1498 8.9685 18.5004 9.63788 18.756C10.1855 18.9657 10.7524 19.111 11.3287 19.1894C11.4473 19.2032 11.5592 19.2557 11.6496 19.34C11.7399 19.4242 11.8043 19.5363 11.8344 19.6612C11.8644 19.7861 11.8586 19.9179 11.8177 20.0391C11.7769 20.1604 11.7028 20.2652 11.6055 20.3398C11.4199 20.4835 11.2972 20.7416 11.2286 21.0398C11.1932 21.1934 11.1721 21.3504 11.1656 21.5085V21.5316C11.1671 21.686 11.1166 21.8357 11.0237 21.9528C10.9308 22.0699 10.8017 22.1465 10.6605 22.1683Z" fill="white"/>
</svg>
