<svg width="227" height="25" viewBox="0 0 227 25" fill="none" xmlns="http://www.w3.org/2000/svg">
<path d="M14.5523 9.11879C14.5523 8.01634 14.2373 7.15014 13.6073 6.52017C13.0088 5.8587 12.1899 5.52797 11.1504 5.52797C10.111 5.52797 9.21328 5.79571 8.45732 6.33118C7.73286 6.83515 7.22888 7.74861 6.9454 9.07154L0.141743 7.46512C0.58272 5.19724 1.74816 3.38608 3.63807 2.03165C5.52797 0.677216 8.18958 0 11.6229 0C13.9223 0 15.8752 0.346482 17.4816 1.03945C19.1195 1.70091 20.3637 2.70886 21.2142 4.06329C22.0961 5.38623 22.5371 7.02414 22.5371 8.97705V17.6234C22.5371 18.8518 23.0883 19.466 24.1908 19.466C24.7577 19.466 25.2145 19.403 25.561 19.277L25.0885 23.86C24.1435 24.301 22.9938 24.5215 21.6394 24.5215C20.411 24.5215 19.3243 24.3325 18.3793 23.9545C17.4344 23.5451 16.6942 22.9466 16.1587 22.1591C15.6232 21.3402 15.3555 20.3165 15.3555 19.088V18.8046L16.2532 18.4738C16.2532 19.8282 15.8437 20.9622 15.0247 21.8756C14.2373 22.7891 13.1978 23.4663 11.9064 23.9073C10.6465 24.3483 9.32353 24.5688 7.9376 24.5688C6.33118 24.5688 4.9295 24.3168 3.73256 23.8128C2.53562 23.3088 1.60642 22.5844 0.944952 21.6394C0.314984 20.663 0 19.466 0 18.0486C0 16.3477 0.503974 14.946 1.51192 13.8435C2.55137 12.7096 4.17354 11.9221 6.37843 11.4812L15.3082 9.63851L15.261 13.8908L10.7252 14.8357C9.78025 15.0247 9.07154 15.3082 8.59906 15.6862C8.15809 16.0327 7.9376 16.5682 7.9376 17.2926C7.9376 17.9856 8.18958 18.5053 8.69356 18.8518C9.19753 19.1983 9.796 19.3715 10.489 19.3715C11.0244 19.3715 11.5284 19.2928 12.0009 19.1353C12.5049 18.9778 12.9458 18.7416 13.3238 18.4266C13.7018 18.0801 14.001 17.6549 14.2215 17.1509C14.442 16.6469 14.5523 16.0484 14.5523 15.3555V9.11879Z" fill="white"/>
<path d="M43.0256 0.472478H51.3412L42.8366 24.0963H33.2453L24.7408 0.472478H33.1981L38.0646 18.4738L43.0256 0.472478Z" fill="white"/>
<path d="M65.2678 24.5688C62.6534 24.5688 60.3855 24.0805 58.4641 23.1041C56.5742 22.1276 55.1095 20.726 54.0701 18.899C53.0306 17.0721 52.5109 14.8672 52.5109 12.2844C52.5109 9.70151 53.0306 7.49662 54.0701 5.66971C55.1095 3.84281 56.5585 2.44113 58.4169 1.46468C60.3068 0.488224 62.4644 0 64.8898 0C67.3782 0 69.4885 0.488224 71.221 1.46468C72.9849 2.40963 74.3236 3.73256 75.237 5.43348C76.1505 7.10289 76.6072 9.02429 76.6072 11.1977C76.6072 11.7647 76.5914 12.3316 76.5599 12.8986C76.5284 13.4656 76.4812 13.938 76.4182 14.316H57.7081V10.0165H72.8746L69.0476 11.4812C69.0476 9.59127 68.7011 8.14234 68.0081 7.13439C67.3467 6.12644 66.3072 5.62247 64.8898 5.62247C63.8818 5.62247 63.0156 5.8587 62.2912 6.33118C61.5982 6.80366 61.0627 7.54387 60.6847 8.55182C60.3383 9.55977 60.165 10.8512 60.165 12.4261C60.165 13.9695 60.3698 15.2295 60.7792 16.2059C61.1887 17.1509 61.7714 17.8438 62.5274 18.2848C63.2834 18.6943 64.1968 18.899 65.2678 18.899C66.4647 18.899 67.4097 18.6628 68.1026 18.1903C68.8271 17.7179 69.3626 17.0564 69.709 16.2059L76.1347 18.3321C75.6937 19.6865 74.922 20.8362 73.8196 21.7811C72.7486 22.6946 71.4572 23.3876 69.9453 23.86C68.4649 24.3325 66.9057 24.5688 65.2678 24.5688Z" fill="white"/>
<path d="M136.215 9.11879C136.215 8.01634 135.9 7.15014 135.27 6.52017C134.671 5.8587 133.852 5.52797 132.813 5.52797C131.774 5.52797 130.876 5.79571 130.12 6.33118C129.395 6.83515 128.891 7.74861 128.608 9.07154L121.804 7.46512C122.245 5.19724 123.411 3.38608 125.301 2.03165C127.191 0.677216 129.852 0 133.286 0C135.585 0 137.538 0.346482 139.144 1.03945C140.782 1.70091 142.026 2.70886 142.877 4.06329C143.759 5.38623 144.2 7.02414 144.2 8.97705V17.6234C144.2 18.8518 144.751 19.466 145.853 19.466C146.42 19.466 146.877 19.403 147.224 19.277L146.751 23.86C145.806 24.301 144.656 24.5215 143.302 24.5215C142.074 24.5215 140.987 24.3325 140.042 23.9545C139.097 23.5451 138.357 22.9466 137.821 22.1591C137.286 21.3402 137.018 20.3165 137.018 19.088V18.8046L137.916 18.4738C137.916 19.8282 137.506 20.9622 136.687 21.8756C135.9 22.7891 134.86 23.4663 133.569 23.9073C132.309 24.3483 130.986 24.5688 129.6 24.5688C127.994 24.5688 126.592 24.3168 125.395 23.8128C124.198 23.3088 123.269 22.5844 122.608 21.6394C121.978 20.663 121.663 19.466 121.663 18.0486C121.663 16.3477 122.167 14.946 123.175 13.8435C124.214 12.7096 125.836 11.9221 128.041 11.4812L136.971 9.63851L136.924 13.8908L132.388 14.8357C131.443 15.0247 130.734 15.3082 130.262 15.6862C129.821 16.0327 129.6 16.5682 129.6 17.2926C129.6 17.9856 129.852 18.5053 130.356 18.8518C130.86 19.1983 131.459 19.3715 132.152 19.3715C132.687 19.3715 133.191 19.2928 133.663 19.1353C134.167 18.9778 134.608 18.7416 134.986 18.4266C135.364 18.0801 135.664 17.6549 135.884 17.1509C136.105 16.6469 136.215 16.0484 136.215 15.3555V9.11879Z" fill="white"/>
<path d="M160.316 24.5688C157.954 24.5688 155.749 24.1908 153.701 23.4348C151.685 22.6474 150.016 21.5292 148.693 20.0802L152.473 15.639C153.26 16.6469 154.3 17.4974 155.591 18.1903C156.914 18.8518 158.379 19.1825 159.985 19.1825C160.962 19.1825 161.765 19.0408 162.395 18.7573C163.025 18.4738 163.34 18.0328 163.34 17.4344C163.34 16.9934 163.182 16.6469 162.867 16.3949C162.552 16.1114 161.922 15.8752 160.977 15.6862L157.67 15.0247C154.709 14.4263 152.599 13.5443 151.339 12.3789C150.11 11.1819 149.496 9.62276 149.496 7.70136C149.496 6.40993 149.89 5.18149 150.677 4.01605C151.465 2.81911 152.678 1.85841 154.315 1.13394C155.953 0.37798 158.048 0 160.599 0C162.993 0 165.104 0.346482 166.931 1.03945C168.758 1.73241 170.206 2.74036 171.277 4.06329L167.45 8.41008C166.694 7.46512 165.718 6.72491 164.521 6.18944C163.324 5.65396 162.127 5.38623 160.93 5.38623C160.174 5.38623 159.528 5.46497 158.993 5.62247C158.489 5.74846 158.111 5.93745 157.859 6.18944C157.607 6.44142 157.481 6.75641 157.481 7.13439C157.481 7.54387 157.67 7.9061 158.048 8.22108C158.458 8.50457 159.198 8.75656 160.269 8.97705L164.568 9.8275C166.994 10.2685 168.742 11.0717 169.813 12.2371C170.884 13.4026 171.419 14.8043 171.419 16.4422C171.419 17.9856 171.01 19.3715 170.191 20.6C169.372 21.8284 168.143 22.8048 166.505 23.5293C164.867 24.2223 162.804 24.5688 160.316 24.5688Z" fill="white"/>
<path d="M186.976 24.5688C184.362 24.5688 182.094 24.0805 180.173 23.1041C178.283 22.1276 176.818 20.726 175.779 18.899C174.739 17.0721 174.22 14.8672 174.22 12.2844C174.22 9.70151 174.739 7.49662 175.779 5.66971C176.818 3.84281 178.267 2.44113 180.126 1.46468C182.015 0.488224 184.173 0 186.599 0C189.087 0 191.197 0.488224 192.93 1.46468C194.694 2.40963 196.032 3.73256 196.946 5.43348C197.859 7.10289 198.316 9.02429 198.316 11.1977C198.316 11.7647 198.3 12.3316 198.269 12.8986C198.237 13.4656 198.19 13.938 198.127 14.316H179.417V10.0165H194.583L190.756 11.4812C190.756 9.59127 190.41 8.14234 189.717 7.13439C189.055 6.12644 188.016 5.62247 186.599 5.62247C185.591 5.62247 184.724 5.8587 184 6.33118C183.307 6.80366 182.771 7.54387 182.393 8.55182C182.047 9.55977 181.874 10.8512 181.874 12.4261C181.874 13.9695 182.078 15.2295 182.488 16.2059C182.897 17.1509 183.48 17.8438 184.236 18.2848C184.992 18.6943 185.906 18.899 186.976 18.899C188.173 18.899 189.118 18.6628 189.811 18.1903C190.536 17.7179 191.071 17.0564 191.418 16.2059L197.843 18.3321C197.402 19.6865 196.631 20.8362 195.528 21.7811C194.457 22.6946 193.166 23.3876 191.654 23.86C190.174 24.3325 188.614 24.5688 186.976 24.5688Z" fill="white"/>
<path d="M215.991 9.11879C215.991 8.01634 215.676 7.15014 215.046 6.52017C214.448 5.8587 213.629 5.52797 212.589 5.52797C211.55 5.52797 210.652 5.79571 209.896 6.33118C209.172 6.83515 208.668 7.74861 208.384 9.07154L201.581 7.46512C202.022 5.19724 203.187 3.38608 205.077 2.03165C206.967 0.677216 209.629 0 213.062 0C215.361 0 217.314 0.346482 218.921 1.03945C220.559 1.70091 221.803 2.70886 222.653 4.06329C223.535 5.38623 223.976 7.02414 223.976 8.97705V17.6234C223.976 18.8518 224.527 19.466 225.63 19.466C226.197 19.466 226.654 19.403 227 19.277L226.528 23.86C225.583 24.301 224.433 24.5215 223.078 24.5215C221.85 24.5215 220.763 24.3325 219.818 23.9545C218.873 23.5451 218.133 22.9466 217.598 22.1591C217.062 21.3402 216.795 20.3165 216.795 19.088V18.8046L217.692 18.4738C217.692 19.8282 217.283 20.9622 216.464 21.8756C215.676 22.7891 214.637 23.4663 213.345 23.9073C212.086 24.3483 210.763 24.5688 209.377 24.5688C207.77 24.5688 206.369 24.3168 205.172 23.8128C203.975 23.3088 203.045 22.5844 202.384 21.6394C201.754 20.663 201.439 19.466 201.439 18.0486C201.439 16.3477 201.943 14.946 202.951 13.8435C203.99 12.7096 205.613 11.9221 207.817 11.4812L216.747 9.63851L216.7 13.8908L212.164 14.8357C211.219 15.0247 210.511 15.3082 210.038 15.6862C209.597 16.0327 209.377 16.5682 209.377 17.2926C209.377 17.9856 209.629 18.5053 210.133 18.8518C210.637 19.1983 211.235 19.3715 211.928 19.3715C212.464 19.3715 212.967 19.2928 213.44 19.1353C213.944 18.9778 214.385 18.7416 214.763 18.4266C215.141 18.0801 215.44 17.6549 215.661 17.1509C215.881 16.6469 215.991 16.0484 215.991 15.3555V9.11879Z" fill="white"/>
<path d="M79.3997 0.472473H87.668V24.0963H79.3997V0.472473Z" fill="url(#paint0_linear_19_75)"/>
<path d="M85.3056 16.4185V8.15021L109.991 8.15021V16.4185H85.3056Z" fill="url(#paint1_linear_19_75)"/>
<path d="M109.52 8.15021C114.086 8.15021 117.788 11.8521 117.788 16.4185V24.0963H109.52V8.15021Z" fill="url(#paint2_linear_19_75)"/>
<path d="M95.9363 7.55961H88.2586C88.2781 5.58834 88.6815 4.01604 91.2199 4.01604C93.7583 4.01604 95.8288 5.58834 95.9363 7.55961Z" fill="url(#paint3_linear_19_75)"/>
<defs>
<linearGradient id="paint0_linear_19_75" x1="117.788" y1="13.7923" x2="79.3997" y2="13.7923" gradientUnits="userSpaceOnUse">
<stop stop-color="#2787BD"/>
<stop offset="1" stop-color="#C7F5C6"/>
</linearGradient>
<linearGradient id="paint1_linear_19_75" x1="117.788" y1="13.7923" x2="79.3997" y2="13.7923" gradientUnits="userSpaceOnUse">
<stop stop-color="#2787BD"/>
<stop offset="1" stop-color="#C7F5C6"/>
</linearGradient>
<linearGradient id="paint2_linear_19_75" x1="117.788" y1="13.7923" x2="79.3997" y2="13.7923" gradientUnits="userSpaceOnUse">
<stop stop-color="#2787BD"/>
<stop offset="1" stop-color="#C7F5C6"/>
</linearGradient>
<linearGradient id="paint3_linear_19_75" x1="117.788" y1="13.7923" x2="79.3997" y2="13.7923" gradientUnits="userSpaceOnUse">
<stop stop-color="#2787BD"/>
<stop offset="1" stop-color="#C7F5C6"/>
</linearGradient>
</defs>
</svg>
