<svg width="616" height="200" viewBox="0 0 616 200" fill="none" xmlns="http://www.w3.org/2000/svg">
<path d="M0 50C0 22.3858 22.3858 0 50 0H150C177.614 0 200 22.3858 200 50V150C200 177.614 177.614 200 150 200H50C22.3858 200 0 177.614 0 150V50Z" fill="url(#paint0_linear)"/>
<path fill-rule="evenodd" clip-rule="evenodd" d="M61.9661 117.684C73.5678 117.684 82.9729 108.205 82.9729 96.5127C82.9729 84.8203 73.5678 75.3418 61.9661 75.3418C50.3644 75.3418 40.9593 84.8203 40.9593 96.5127C40.9593 108.205 50.3644 117.684 61.9661 117.684ZM61.9661 124.697C77.4113 124.697 89.9322 112.079 89.9322 96.5127C89.9322 80.9468 77.4113 68.3281 61.9661 68.3281C46.5208 68.3281 34 80.9468 34 96.5127C34 112.079 46.5208 124.697 61.9661 124.697Z" fill="white"/>
<path d="M65.2926 95.2133L59.782 93.578C59.1442 93.3917 58.7002 92.7862 58.7002 92.1134C58.7002 91.2699 59.3738 90.5868 60.2055 90.5868H63.5884C64.2109 90.5868 64.8232 90.7783 65.3334 91.1302C65.6447 91.3423 66.0631 91.2906 66.3284 91.0267L68.104 89.2672C68.4663 88.9101 68.4153 88.315 68.0122 87.9993C66.7621 87.0057 65.2007 86.452 63.5986 86.4468V83.9628C63.5986 83.5074 63.2312 83.1348 62.7822 83.1348H61.1494C60.7004 83.1348 60.333 83.5074 60.333 83.9628V86.4468H60.2055C56.9552 86.4468 54.3428 89.2775 54.6438 92.6361C54.8581 95.0218 56.6542 96.9624 58.9196 97.6352L64.1496 99.1877C64.7875 99.3791 65.2314 99.9795 65.2314 100.652C65.2314 101.496 64.5578 102.179 63.7261 102.179H60.3432C59.7207 102.179 59.1084 101.987 58.5982 101.635C58.2869 101.423 57.8685 101.475 57.6032 101.739L55.8276 103.498C55.4653 103.856 55.5163 104.451 55.9194 104.766C57.1695 105.76 58.7309 106.314 60.333 106.319V108.803C60.333 109.258 60.7004 109.631 61.1494 109.631H62.7822C63.2312 109.631 63.5986 109.258 63.5986 108.803V106.308C65.9763 106.262 68.2061 104.828 68.9919 102.546C70.0889 99.3585 68.2469 96.0878 65.2926 95.2133Z" fill="white"/>
<path d="M101.016 130.152H106.428V163.272C106.428 164.779 105.217 166 103.722 166C102.227 166 101.016 164.779 101.016 163.272V130.152Z" fill="white"/>
<path d="M117.769 130.152H123.182V163.272C123.182 164.779 121.97 166 120.476 166C118.981 166 117.769 164.779 117.769 163.272V130.152Z" fill="white"/>
<path fill-rule="evenodd" clip-rule="evenodd" d="M120.218 102.877C121.855 102.877 123.182 101.539 123.182 99.8896C123.182 98.2398 121.855 96.9023 120.218 96.9023C118.581 96.9023 117.254 98.2398 117.254 99.8896C117.254 101.539 118.581 102.877 120.218 102.877ZM120.218 108.332C124.844 108.332 128.595 104.552 128.595 99.8896C128.595 95.227 124.844 91.4473 120.218 91.4473C115.592 91.4473 111.841 95.227 111.841 99.8896C111.841 104.552 115.592 108.332 120.218 108.332Z" fill="white"/>
<path d="M117.512 35.8574C117.512 34.2793 118.781 33 120.347 33H122.924V93.0059H117.512V35.8574Z" fill="white"/>
<path d="M134.008 33H136.585C138.151 33 139.421 34.2793 139.421 35.8574V47.0273C139.421 48.6055 138.151 49.8848 136.585 49.8848H134.008V33Z" fill="white"/>
<path d="M120.089 38.4551V33L136.843 33V38.4551H120.089Z" fill="white"/>
<path d="M120.089 49.8848V44.4297H136.843V49.8848H120.089Z" fill="white"/>
<path d="M70.343 61.0547H73.6938C85.6514 61.0547 95.345 70.824 95.345 82.875V127.035H48.6919V115.346H43.0213V132.75H98.1802C99.7461 132.75 101.016 131.471 101.016 129.893V82.875C101.016 67.6678 88.7832 55.3398 73.6938 55.3398H70.343C56.7452 55.3398 45.4675 65.3511 43.3708 78.459H49.1355C51.1614 68.525 59.8866 61.0547 70.343 61.0547Z" fill="white"/>
<path d="M35.031 130.022C35.031 128.516 35.6564 127.295 36.4279 127.295H101.016V132.75H36.4279C35.6564 132.75 35.031 131.529 35.031 130.022Z" fill="white"/>
<path d="M70.343 61.0547H139.678C151.636 61.0547 161.329 70.824 161.329 82.875V127.035H48.6919V114.307H43.0213V132.75H164.165C165.731 132.75 167 131.471 167 129.893V82.875C167 67.6678 154.768 55.3398 139.678 55.3398H70.343C56.4769 55.3398 45.0234 65.7499 43.2575 79.2383H48.9912C50.7092 68.9183 59.6149 61.0547 70.343 61.0547Z" fill="white"/>
<path d="M276.624 141.704C269.232 141.704 262.773 140.173 257.248 137.112C251.797 134.051 247.541 129.533 244.48 123.56C241.493 117.587 240 110.195 240 101.384C240 92.7227 241.493 85.3307 244.48 79.208C247.541 73.0107 251.909 68.3067 257.584 65.096C263.259 61.8107 270.091 60.168 278.08 60.168C282.411 60.168 286.891 60.6907 291.52 61.736C296.224 62.7067 300.965 64.1627 305.744 66.104L304.624 86.152H295.104L292.752 74.728C290.437 73.9813 288.123 73.4213 285.808 73.048C283.568 72.6 281.403 72.376 279.312 72.376C272.368 72.376 266.955 74.8027 263.072 79.656C259.189 84.5093 257.248 91.6773 257.248 101.16C257.248 109.971 259.04 116.877 262.624 121.88C266.283 126.883 271.584 129.384 278.528 129.384C282.261 129.384 286.219 128.675 290.4 127.256V110.904L282.224 109.336V101.048L313.36 100.488V108.888L305.296 111.016V135.432C300.144 137.523 295.141 139.091 290.288 140.136C285.435 141.181 280.88 141.704 276.624 141.704Z" fill="#150750"/>
<path d="M318.716 140.36V132.296L326.22 130.168V91.192L318.716 88.952V80.888L338.428 79.992L339.996 88.504C343.057 85.5173 346.081 83.24 349.068 81.672C352.129 80.0293 355.415 79.208 358.924 79.208C361.239 79.208 363.777 79.5813 366.54 80.328L365.532 101.048H356.46L355.116 91.64C354.593 91.5653 354.033 91.528 353.436 91.528C351.42 91.528 349.404 92.088 347.388 93.208C345.372 94.328 343.543 95.784 341.9 97.576V130.168L351.196 132.296V140.36H318.716Z" fill="#150750"/>
<path d="M406.793 141.256L404.889 131.848C402.052 135.133 398.916 137.597 395.481 139.24C392.121 140.883 388.687 141.704 385.177 141.704C380.399 141.704 376.441 140.173 373.305 137.112C370.169 134.051 368.601 129.645 368.601 123.896C368.601 117.624 370.617 113.181 374.649 110.568C378.756 107.955 384.58 106.648 392.121 106.648H403.209V100.488C403.209 96.9787 402.351 94.4773 400.633 92.984C398.991 91.4907 396.564 90.744 393.353 90.744C390.591 90.744 387.417 91.2293 383.833 92.2L382.601 99.928H372.857L371.961 83.576C382.041 80.664 390.553 79.208 397.497 79.208C404.516 79.208 409.817 80.7013 413.401 83.688C417.06 86.6747 418.889 91.304 418.889 97.576V129.944L426.393 132.296V140.248L406.793 141.256ZM384.393 122.328C384.393 125.165 385.028 127.219 386.297 128.488C387.641 129.757 389.321 130.392 391.337 130.392C393.129 130.392 395.071 129.869 397.161 128.824C399.252 127.779 401.268 126.36 403.209 124.568V114.936H394.697C390.815 114.936 388.127 115.571 386.633 116.84C385.14 118.035 384.393 119.864 384.393 122.328Z" fill="#150750"/>
<path d="M480.327 121.096L480.439 140.36H431.495V131.176L461.735 91.08H442.695L441.575 98.584H432.055L431.943 80.552H479.095V89.736L449.415 129.832H468.791L470.807 121.096H480.327Z" fill="#150750"/>
<path d="M518.06 132.296V140.36H487.372V132.296L494.876 130.168V91.08L487.372 88.952V80.888L510.556 80.104V130.168L518.06 132.296ZM502.268 71.368C499.505 71.368 497.265 70.584 495.548 69.016C493.905 67.448 493.084 65.208 493.084 62.296C493.084 59.16 493.943 56.8453 495.66 55.352C497.452 53.784 499.692 53 502.38 53C504.993 53 507.159 53.784 508.876 55.352C510.593 56.8453 511.452 59.1227 511.452 62.184C511.452 65.2453 510.556 67.56 508.764 69.128C507.047 70.6213 504.881 71.368 502.268 71.368Z" fill="#150750"/>
<path d="M552.914 132.296V140.36H522.338V132.296L529.73 130.168V64.2L522.338 62.184V54.12L545.41 53.224V130.168L552.914 132.296Z" fill="#150750"/>
<path d="M553.926 166.68L555.382 155.592C557.846 155.891 559.9 156.04 561.542 156.04C565.948 156.04 569.308 154.845 571.622 152.456C573.937 150.067 576.14 146.221 578.23 140.92L557.846 90.296L552.358 89.064V81L580.246 80.104V88.056L573.526 89.848L585.286 124.568L595.926 90.408L589.318 89.064V81L615.75 80.104V88.056L610.486 89.736L592.342 140.136C590.252 145.811 587.937 150.701 585.398 154.808C582.934 158.915 579.873 162.051 576.214 164.216C572.556 166.381 568.038 167.464 562.662 167.464C560.049 167.464 557.137 167.203 553.926 166.68Z" fill="#150750"/>
<defs>
<linearGradient id="paint0_linear" x1="100" y1="0" x2="100" y2="200" gradientUnits="userSpaceOnUse">
<stop stop-color="#FF5001"/>
<stop offset="1" stop-color="#E91B3E"/>
</linearGradient>
</defs>
</svg>
